<?xml version="1.0" encoding="UTF-8" standalone="no"?>
<!-- Created with Inkscape (http://www.inkscape.org/) -->

<svg
   version="1.1"
   id="svg2"
   xml:space="preserve"
   width="364.22018"
   height="152.44138"
   viewBox="0 0 364.22018 152.44138"
   sodipodi:docname="openfluid_official_nosubtitle_v2.svg"
   inkscape:version="1.1.2 (0a00cf5339, 2022-02-04)"
   xmlns:inkscape="http://www.inkscape.org/namespaces/inkscape"
   xmlns:sodipodi="http://sodipodi.sourceforge.net/DTD/sodipodi-0.dtd"
   xmlns="http://www.w3.org/2000/svg"
   xmlns:svg="http://www.w3.org/2000/svg"><defs
     id="defs6" /><sodipodi:namedview
     id="namedview4"
     pagecolor="#ffffff"
     bordercolor="#666666"
     borderopacity="1.0"
     inkscape:pageshadow="2"
     inkscape:pageopacity="0.0"
     inkscape:pagecheckerboard="0"
     showgrid="false"
     inkscape:zoom="4.0634761"
     inkscape:cx="181.98704"
     inkscape:cy="76.166316"
     inkscape:window-width="2490"
     inkscape:window-height="1376"
     inkscape:window-x="70"
     inkscape:window-y="27"
     inkscape:window-maximized="1"
     inkscape:current-layer="g8" /><g
     id="g8"
     inkscape:groupmode="layer"
     inkscape:label="openfluid_official_nosubtitle_v2"
     transform="matrix(1.3333333,0,0,1.3333333,0,8.4777008e-6)"><g
       id="g10"><path
         d="m 28.684,88.902 c 0,4.727 -1.172,8.36 -3.512,10.899 -2.344,2.543 -5.703,3.812 -10.078,3.812 -4.375,0 -7.735,-1.269 -10.078,-3.812 C 2.672,97.262 1.5,93.617 1.5,88.863 c 0,-4.754 1.172,-8.379 3.516,-10.879 2.355,-2.511 5.726,-3.769 10.117,-3.769 4.387,0 7.738,1.262 10.058,3.789 2.329,2.527 3.493,6.16 3.493,10.898 z m -20.836,0 c 0,3.192 0.605,5.594 1.816,7.207 1.211,1.618 3.02,2.422 5.43,2.422 4.828,0 7.246,-3.207 7.246,-9.629 0,-6.433 -2.402,-9.648 -7.207,-9.648 -2.41,0 -4.227,0.812 -5.449,2.441 -1.223,1.614 -1.836,4.02 -1.836,7.207 z"
         style="fill:#47617b;fill-opacity:1;fill-rule:nonzero;stroke:none"
         id="path12" /><path
         d="m 46.164,103.613 c -2.566,0 -4.574,-0.933 -6.035,-2.797 h -0.313 c 0.211,1.825 0.313,2.879 0.313,3.168 v 8.848 H 34.172 V 81.383 h 4.844 l 0.839,2.832 h 0.274 c 1.394,-2.16 3.457,-3.242 6.191,-3.242 2.578,0 4.598,0.996 6.055,2.988 1.457,1.992 2.187,4.762 2.187,8.301 0,2.332 -0.343,4.355 -1.035,6.074 -0.675,1.719 -1.648,3.031 -2.91,3.93 -1.262,0.898 -2.746,1.347 -4.453,1.347 z M 44.406,85.738 c -1.472,0 -2.543,0.457 -3.222,1.367 -0.676,0.899 -1.028,2.391 -1.055,4.473 v 0.645 c 0,2.343 0.348,4.023 1.035,5.039 0.703,1.015 1.809,1.523 3.32,1.523 2.668,0 4.004,-2.199 4.004,-6.601 0,-2.149 -0.332,-3.754 -0.996,-4.825 -0.652,-1.078 -1.68,-1.621 -3.086,-1.621 z"
         style="fill:#47617b;fill-opacity:1;fill-rule:nonzero;stroke:none"
         id="path14" /><path
         d="m 68.527,85.211 c -1.265,0 -2.254,0.406 -2.968,1.211 -0.719,0.797 -1.129,1.93 -1.231,3.398 h 8.36 C 72.66,88.352 72.277,87.219 71.535,86.422 70.793,85.617 69.789,85.211 68.527,85.211 Z m 0.84,18.402 c -3.515,0 -6.265,-0.972 -8.242,-2.914 -1.98,-1.937 -2.969,-4.687 -2.969,-8.242 0,-3.656 0.91,-6.484 2.735,-8.477 1.836,-2.003 4.367,-3.007 7.597,-3.007 3.086,0 5.489,0.879 7.203,2.636 1.719,1.758 2.579,4.188 2.579,7.286 v 2.89 H 64.191 c 0.063,1.695 0.567,3.016 1.504,3.965 0.938,0.953 2.25,1.426 3.946,1.426 1.312,0 2.558,-0.137 3.73,-0.41 1.172,-0.274 2.395,-0.707 3.668,-1.309 v 4.613 c -1.039,0.52 -2.152,0.903 -3.336,1.153 -1.187,0.257 -2.633,0.39 -4.336,0.39 z"
         style="fill:#47617b;fill-opacity:1;fill-rule:nonzero;stroke:none"
         id="path16" /><path
         d="M 103.309,103.223 H 97.352 V 90.465 c 0,-1.574 -0.282,-2.754 -0.84,-3.535 -0.559,-0.793 -1.453,-1.192 -2.676,-1.192 -1.668,0 -2.871,0.563 -3.613,1.68 -0.743,1.109 -1.114,2.949 -1.114,5.527 v 10.278 h -5.957 v -21.84 h 4.551 l 0.801,2.793 h 0.332 c 0.664,-1.055 1.578,-1.848 2.734,-2.383 1.172,-0.547 2.5,-0.82 3.985,-0.82 2.539,0 4.465,0.691 5.781,2.07 1.316,1.367 1.973,3.348 1.973,5.937 z"
         style="fill:#47617b;fill-opacity:1;fill-rule:nonzero;stroke:none"
         id="path18" /><path
         d="m 115.906,103.223 h -5.957 V 74.664 h 16.363 v 4.961 h -10.406 v 7.363 h 9.684 v 4.942 h -9.684 z"
         style="fill:#47617b;fill-opacity:1;fill-rule:nonzero;stroke:none"
         id="path20" /><path
         d="M 131.898,103.223 V 74.664 h 6.055 v 23.555 h 11.582 v 5.004 z"
         style="fill:#47617b;fill-opacity:1;fill-rule:nonzero;stroke:none"
         id="path22" /><path
         d="m 177.715,74.664 v 18.477 c 0,2.109 -0.473,3.961 -1.426,5.547 -0.937,1.589 -2.297,2.808 -4.078,3.656 -1.785,0.844 -3.895,1.269 -6.328,1.269 -3.672,0 -6.524,-0.937 -8.555,-2.816 -2.031,-1.887 -3.047,-4.465 -3.047,-7.735 V 74.664 h 6.035 v 17.481 c 0,2.203 0.442,3.816 1.329,4.843 0.882,1.032 2.347,1.543 4.394,1.543 1.977,0 3.41,-0.511 4.297,-1.543 0.898,-1.039 1.348,-2.668 1.348,-4.883 V 74.664 Z"
         style="fill:#47617b;fill-opacity:1;fill-rule:nonzero;stroke:none"
         id="path24" /><path
         d="m 184.707,74.664 h 6.055 v 28.559 h -6.055 z"
         style="fill:#47617b;fill-opacity:1;fill-rule:nonzero;stroke:none"
         id="path26" /><path
         d="m 221.68,88.668 c 0,4.703 -1.344,8.301 -4.024,10.801 -2.672,2.504 -6.531,3.754 -11.582,3.754 h -8.086 V 74.664 h 8.965 c 4.66,0 8.281,1.231 10.859,3.691 2.579,2.461 3.868,5.899 3.868,10.313 z m -6.289,0.156 c 0,-6.133 -2.711,-9.199 -8.125,-9.199 h -3.223 v 18.594 h 2.598 c 5.832,0 8.75,-3.129 8.75,-9.395 z"
         style="fill:#47617b;fill-opacity:1;fill-rule:nonzero;stroke:none"
         id="path28" /><path
         d="m 234.602,44.988 26.25,-0.133 2.23,-3.496 c 0,0 8.578,6.746 8.582,8.493 0.004,1.71 -19.875,8.66 -19.875,8.66 l 3.016,-4.422 -26.254,0.18 z"
         style="fill:#f1a631;fill-opacity:1;fill-rule:nonzero;stroke:none"
         id="path30" /><g
         id="g32"><path
           d="m 149.164,44.391 c 19.695,-23.985 17.496,16.285 35.988,-6.36"
           style="fill:none;stroke:#4f75d1;stroke-width:6.75;stroke-linecap:butt;stroke-linejoin:miter;stroke-miterlimit:4;stroke-dasharray:none;stroke-opacity:1"
           id="path34" /></g><path
         d="M 132.98,22.77 C 130.438,9.977 145.062,2.191 155.047,1.5 c -1.391,11.992 -11.68,20.574 -20.231,22.457 -0.906,1.875 -1.695,3.5 -2.601,5.375 -1.914,-1.031 -1.137,-0.148 -3.051,-1.176 1.274,-1.797 2.547,-3.594 3.816,-5.386 z"
         style="fill:#4fcd4f;fill-opacity:1;fill-rule:nonzero;stroke:none"
         id="path36" /><path
         d="m 197.469,33.797 26.351,0.113 v 2.481 h -8.754 l -0.871,7.589 2.664,12.961 h -4.179 l -2.137,-9.453 -2.043,9.453 h -4.18 l 2.567,-12.961 -1.114,-7.589 h -8.304 z"
         style="fill:#999999;fill-opacity:1;fill-rule:nonzero;stroke:none"
         id="path38" /><path
         d="m 214.004,29.797 c 0,1.898 -1.527,3.437 -3.414,3.437 -1.887,0 -3.414,-1.539 -3.414,-3.437 0,-1.899 1.527,-3.438 3.414,-3.438 1.887,0 3.414,1.539 3.414,3.438 z"
         style="fill:#999999;fill-opacity:1;fill-rule:nonzero;stroke:none"
         id="path40" /><path
         d="m 253.078,43.25 3,-4.539 c 0.762,-1.149 0.41,-2.887 -0.738,-3.645 -1.149,-0.761 -2.875,-0.41 -3.637,0.739 l -5.031,7.55 z"
         style="fill:#917c6f;fill-opacity:1;fill-rule:nonzero;stroke:none"
         id="path42" /><path
         d="m 102.938,8.734 c -3.825,0.02 -7.243,1.016 -10.149,3.071 -2.906,2.054 -5.285,5.039 -7.617,8.929 -4.668,7.782 -9.324,19.379 -17.086,36.188 -0.578,1.25 0.035,2.914 1.289,3.492 1.25,0.574 2.914,-0.039 3.492,-1.289 7.809,-16.91 12.567,-28.594 16.828,-35.695 2.129,-3.555 4.086,-5.903 6.117,-7.336 2.032,-1.438 4.149,-2.094 7.149,-2.11 1.57,-0.011 4.281,1.922 7.43,5.977 3.148,4.051 6.66,9.762 10.664,15.773 8.007,12.02 18.031,25.481 32.836,29.227 23.355,5.91 52.312,3.582 81.281,3.281 0.863,-0.008 1.707,-0.472 2.18,-1.195 l 7.476,-11.324 -6.375,0.113 -4.734,7.18 C 205.004,63.371 176.836,65.355 155.18,59.875 142.793,56.738 133.277,44.633 125.414,32.828 121.48,26.922 117.984,21.164 114.539,16.727 111.09,12.285 107.613,8.707 102.938,8.734 Z"
         style="fill:#917c6f;fill-opacity:1;fill-rule:nonzero;stroke:none"
         id="path44" /></g></g></svg>
